<svg xmlns="http://www.w3.org/2000/svg" viewBox="0 -168 1008 1008"><path fill="currentColor" d="M504 294c118 0 211 93 211 211s-93 211-211 211-211-93-211-211 93-211 211-211zm0 85c-71 0-124 55-124 126s53 124 124 124 124-53 124-124-53-126-124-126zM404 229L504 86l100 143c-63-23-137-23-200 0zM215 454l-75-160 175-13c-53 41-91 108-100 173zm100 277l-173-15 73-160c13 65 51 130 100 175zm378-450l175 13-75 160c-13-65-51-132-100-173zm100 275l73 160-173 13c49-41 87-108 100-173zM604 781L504 924 404 781c61 23 137 23 200 0z"/></svg>
