<svg xmlns="http://www.w3.org/2000/svg" viewBox="0 -189 882 1008"><path fill="currentColor" d="M754 351c30 0 59 24 59 54v228c0 29-29 53-59 53-29 0-53-24-53-53V405c0-30 24-54 53-54zM567 233c0-12-10-21-22-21-11 0-21 9-21 21s10 22 21 22c12 0 22-10 22-22zm-220 0h-2c0-12-10-21-22-21s-20 9-20 21 10 22 22 22 22-10 22-22zm336 109H193c0-85 51-158 126-195l-37-69c-6-10 7-16 11-8l38 71c69-32 147-30 212 0l38-71c6-8 19-2 14 8l-38 69c75 37 126 110 126 195zM199 714l-4-353h486v353c0 31-25 57-57 57h-39v120c0 73-109 73-109 0V771h-72v120c0 73-109 73-109 0V771h-39c-32 0-57-26-57-57zm-22-309v228c0 29-23 53-53 53-29 0-59-24-59-53V405c0-30 30-54 59-54 30 0 53 24 53 54z"/></svg>
