<svg xmlns="http://www.w3.org/2000/svg" viewBox="0 -202 630 1008"><path fill="currentColor" d="M314 913l1-1c-23 0-41-19-41-42h-83c-24 0-43-20-43-43V701c0-17-6-36-18-60s-39-59-73-115l-3-5C20 465 0 410 0 346c0-87 30-161 92-221 62-63 135-93 222-93 88 0 161 30 223 93 63 62 93 134 93 221 0 66-18 126-57 181-36 51-61 89-73 114-11 24-17 44-17 61v126c0 23-18 43-41 43h-85c0 23-19 42-43 42zm-19-673c0-15 7-22 20-22 34 0 63 13 88 38 25 24 37 52 37 87 0 15-10 21-21 21s-21-6-21-21c0-46-36-82-83-82-13 0-20-8-20-21zm109 420l1-1c9-38 42-99 101-183 29-42 42-85 42-133 0-62-22-115-68-162-47-46-101-68-164-68-62 0-116 22-163 68-44 46-67 99-67 162 0 47 14 91 42 133l3 7c56 79 87 137 96 177h47v-85c0-23 18-41 41-41 24 0 43 18 43 41v85h46zm-171 83v42h168v-42H233z"/></svg>
