<svg xmlns="http://www.w3.org/2000/svg" xmlns:xlink="http://www.w3.org/1999/xlink" width="500" zoomAndPan="magnify" viewBox="0 0 375 374.999991" height="500" preserveAspectRatio="xMidYMid meet" version="1.0"><defs><clipPath id="id1"><path d="M 70 216 L 243 216 L 243 318 L 70 318 Z M 70 216 " clip-rule="nonzero"/></clipPath><clipPath id="id2"><path d="M -2.675781 190.925781 L 285.757812 24.507812 L 377.960938 184.316406 L 89.527344 350.734375 Z M -2.675781 190.925781 " clip-rule="nonzero"/></clipPath><clipPath id="id3"><path d="M -2.675781 190.925781 L 285.757812 24.507812 L 402.324219 226.539062 L 113.890625 392.957031 Z M -2.675781 190.925781 " clip-rule="nonzero"/></clipPath><clipPath id="id4"><path d="M 110 69 L 313 69 L 313 188 L 110 188 Z M 110 69 " clip-rule="nonzero"/></clipPath><clipPath id="id5"><path d="M -2.675781 190.925781 L 285.757812 24.507812 L 377.960938 184.316406 L 89.527344 350.734375 Z M -2.675781 190.925781 " clip-rule="nonzero"/></clipPath><clipPath id="id6"><path d="M -2.675781 190.925781 L 285.757812 24.507812 L 402.324219 226.539062 L 113.890625 392.957031 Z M -2.675781 190.925781 " clip-rule="nonzero"/></clipPath></defs><g clip-path="url(#id1)"><g clip-path="url(#id2)"><g clip-path="url(#id3)"><path fill="#05c1ff" d="M 160.160156 273.625 C 157.175781 272.347656 98.644531 248.203125 70.496094 317.277344 C 70.496094 317.277344 97.144531 289.472656 120.355469 285.941406 C 132.972656 284.023438 172.328125 299.328125 175.640625 300.628906 C 175.679688 300.644531 175.738281 300.667969 175.769531 300.679688 C 175.773438 300.648438 175.78125 300.585938 175.785156 300.546875 C 176.320312 297.023438 182.765625 255.292969 190.742188 245.332031 C 205.414062 227.003906 242.824219 217.847656 242.824219 217.847656 C 168.941406 207.644531 160.542969 270.40625 160.160156 273.625 " fill-opacity="1" fill-rule="nonzero"/></g></g></g><g clip-path="url(#id4)"><g clip-path="url(#id5)"><g clip-path="url(#id6)"><path fill="#05c1ff" d="M 215.507812 136.402344 C 212.011719 134.902344 143.449219 106.621094 110.484375 187.527344 C 110.484375 187.527344 141.699219 154.960938 168.878906 150.824219 C 183.660156 148.574219 229.757812 166.5 233.640625 168.027344 C 233.683594 168.042969 233.75 168.070312 233.785156 168.082031 C 233.789062 168.046875 233.800781 167.976562 233.808594 167.929688 C 234.433594 163.804688 241.984375 114.921875 251.324219 103.253906 C 268.511719 81.792969 312.332031 71.066406 312.332031 71.066406 C 225.789062 59.117188 215.953125 132.625 215.507812 136.402344 " fill-opacity="1" fill-rule="nonzero"/></g></g></g></svg>