<?xml version="1.0" encoding="utf-8"?>
<!-- Generator: Adobe Illustrator 27.1.1, SVG Export Plug-In . SVG Version: 6.00 Build 0)  -->
<svg version="1.1" id="Layer_1" xmlns="http://www.w3.org/2000/svg" xmlns:xlink="http://www.w3.org/1999/xlink" x="0px" y="0px"
	 viewBox="0 0 500 266.5" style="enable-background:new 0 0 500 266.5;" xml:space="preserve">
<style type="text/css">
	.st0{clip-path:url(#SVGID_00000078006238441221056470000011910890971168375462_);}
	.st1{clip-path:url(#SVGID_00000123419183518948073350000009457476627936735671_);}
	.st2{clip-path:url(#SVGID_00000162323807735424049230000015525086527447323054_);}
	.st3{fill:#05C1FF;}
	.st4{clip-path:url(#SVGID_00000050647350281820997070000013577319223584951702_);}
	.st5{clip-path:url(#SVGID_00000018928995379720776940000008143497194456291751_);}
	.st6{clip-path:url(#SVGID_00000182496559929839698510000001752164223825746856_);}
</style>
<g>
	<g>
		<defs>
			<rect id="SVGID_1_" x="41.1" y="84.7" width="60.3" height="36.2"/>
		</defs>
		<clipPath id="SVGID_00000153687753223401122030000010542349099217856682_">
			<use xlink:href="#SVGID_1_"  style="overflow:visible;"/>
		</clipPath>
		<g style="clip-path:url(#SVGID_00000153687753223401122030000010542349099217856682_);">
			<g>
				<defs>
					
						<rect id="SVGID_00000023980118231426358840000016301251060759790468_" x="25.6" y="44.6" transform="matrix(0.8662 -0.4998 0.4998 0.8662 -27.0259 51.454)" width="114" height="63.1"/>
				</defs>
				<clipPath id="SVGID_00000030461085775737441820000010555795317741088424_">
					<use xlink:href="#SVGID_00000023980118231426358840000016301251060759790468_"  style="overflow:visible;"/>
				</clipPath>
				<g style="clip-path:url(#SVGID_00000030461085775737441820000010555795317741088424_);">
					<g>
						<defs>
							
								<rect id="SVGID_00000118384928100772656660000011748648444511458213_" x="29.7" y="43.5" transform="matrix(0.8662 -0.4998 0.4998 0.8662 -30.0276 54.4532)" width="114" height="79.5"/>
						</defs>
						<clipPath id="SVGID_00000000905781347379365760000007259045349559413380_">
							<use xlink:href="#SVGID_00000118384928100772656660000011748648444511458213_"  style="overflow:visible;"/>
						</clipPath>
						<g style="clip-path:url(#SVGID_00000000905781347379365760000007259045349559413380_);">
							<path class="st3" d="M73.1,105.5c-1-0.4-21-8.6-30.7,14.9c0,0,9.1-9.5,17.1-10.7c4.3-0.7,17.8,4.5,18.9,5c0,0,0,0,0,0
								c0,0,0,0,0,0c0.2-1.2,2.4-15.5,5.1-18.9c5-6.3,17.8-9.4,17.8-9.4C76.1,82.9,73.2,104.4,73.1,105.5"/>
						</g>
					</g>
				</g>
			</g>
		</g>
	</g>
	<g>
		<defs>
			<rect id="SVGID_00000032611262169988281880000018133163586491425166_" x="54.7" y="34.9" width="70.9" height="42.2"/>
		</defs>
		<clipPath id="SVGID_00000112597395813365763130000004354159799580071812_">
			<use xlink:href="#SVGID_00000032611262169988281880000018133163586491425166_"  style="overflow:visible;"/>
		</clipPath>
		<g style="clip-path:url(#SVGID_00000112597395813365763130000004354159799580071812_);">
			<g>
				<defs>
					
						<rect id="SVGID_00000056428945428118528920000012836090951312336264_" x="25.6" y="44.6" transform="matrix(0.8662 -0.4998 0.4998 0.8662 -27.0259 51.454)" width="114" height="63.1"/>
				</defs>
				<clipPath id="SVGID_00000171706697639301565020000005491728787252341122_">
					<use xlink:href="#SVGID_00000056428945428118528920000012836090951312336264_"  style="overflow:visible;"/>
				</clipPath>
				<g style="clip-path:url(#SVGID_00000171706697639301565020000005491728787252341122_);">
					<g>
						<defs>
							
								<rect id="SVGID_00000041275909281505513120000013482598197017844671_" x="29.7" y="43.5" transform="matrix(0.8662 -0.4998 0.4998 0.8662 -30.0276 54.4532)" width="114" height="79.5"/>
						</defs>
						<clipPath id="SVGID_00000081611544093756822340000013073303238575735741_">
							<use xlink:href="#SVGID_00000041275909281505513120000013482598197017844671_"  style="overflow:visible;"/>
						</clipPath>
						<g style="clip-path:url(#SVGID_00000081611544093756822340000013073303238575735741_);">
							<path class="st3" d="M92.1,58.6c-1.2-0.5-24.6-10.1-35.9,17.5c0,0,10.7-11.1,20-12.6c5.1-0.8,20.8,5.3,22.1,5.8
								c0,0,0,0,0.1,0c0,0,0,0,0-0.1c0.2-1.4,2.8-18.1,6-22.1c5.9-7.3,20.9-11,20.9-11C95.6,32.2,92.2,57.3,92.1,58.6"/>
						</g>
					</g>
				</g>
			</g>
		</g>
	</g>
	<g>
		<g transform="translate(97.814446, 226.319519)">
			<g>
				<path class="st3" d="M36.6-151.7v39.4c0,8.2-0.3,14.3-0.9,18.4c13.5-12.5,26-18.8,37.5-18.8c11.7,0,20.2,3.7,25.3,11
					c5.1,7.3,7.7,19.6,7.7,37c0,17.1-2.9,29.3-8.6,36.8c-5.7,7.5-15.4,11.2-29.1,11.2c-12.4,0-25.5-2-39.5-6.1v-128.9H36.6z
					 M36.6-88.2v60.3c10.7,3.2,21.3,4.6,31.7,4.4c10.9,0,18.6-3.1,23.2-9.3c4.6-6.2,6.9-16.8,6.9-31.9c0-15-2-25.7-6-31.8
					c-4-6.2-10.9-9.3-20.8-9.3c-5.3,0-10.6,1.4-15.7,4.2C50.8-98.9,44.4-94.4,36.6-88.2z"/>
			</g>
		</g>
	</g>
	<g>
		<g transform="translate(168.363327, 226.319519)">
			<g>
				<path class="st3" d="M70.8-151.7v112.6c-0.1,4.7,1.1,8.3,3.6,10.7c2.5,2.5,6.1,3.7,10.8,3.7h10.4l0.9,5.5c-3,1-7.5,1.5-13.3,1.5
					c-6.2,0-11.1-1.8-14.7-5.3c-3.6-3.5-5.4-8.5-5.4-15v-113.8H70.8z"/>
			</g>
		</g>
	</g>
	<g>
		<g transform="translate(203.197624, 226.319519)">
			<g>
				<path class="st3" d="M87.6-101.9c6.1-7.2,16.7-10.8,31.6-10.8c14.9,0,25.4,3.6,31.6,10.8c6.1,7.2,9.2,19.6,9.2,37.1
					s-3,30-9.1,37.2c-6.1,7.2-16.6,10.8-31.7,10.8c-15,0-25.6-3.6-31.7-10.8c-6.1-7.2-9.1-19.6-9.1-37.2S81.4-94.7,87.6-101.9z
					 M144.8-97c-4.9-5.9-13.4-8.9-25.7-8.9c-12.3,0-20.8,3-25.6,8.9c-4.8,5.9-7.2,16.7-7.2,32.2s2.4,26.3,7.2,32.3
					c4.8,6,13.3,9,25.6,9c12.3,0,20.8-3,25.7-9c4.9-6,7.3-16.8,7.3-32.3S149.7-91,144.8-97z"/>
			</g>
		</g>
	</g>
	<g>
		<g transform="translate(273.872257, 226.319519)">
			<g>
				<path class="st3" d="M183.9-25.7l1.2,5.3c-9.2,2.4-18.8,3.6-28.6,3.6c-15.4,0-26.3-3.6-32.7-10.8c-6.4-7.2-9.6-19.6-9.6-37.2
					s3.2-30,9.6-37.1c6.4-7.2,17.2-10.8,32.5-10.8c11,0,19.9,1.2,26.7,3.6l-1.3,5.1c-6.7-1.3-14.7-1.9-24.1-1.9
					c-13.1,0-22.3,2.9-27.6,8.8c-5.2,5.9-7.9,16.6-7.9,32.3c0,15.7,2.6,26.5,7.9,32.3c5.2,5.9,14.4,8.8,27.6,8.8
					C168.1-23.6,176.9-24.3,183.9-25.7z"/>
			</g>
		</g>
	</g>
</g>
</svg>
