<svg xmlns="http://www.w3.org/2000/svg" xmlns:xlink="http://www.w3.org/1999/xlink" width="500" zoomAndPan="magnify" viewBox="0 0 375 374.999991" height="500" preserveAspectRatio="xMidYMid meet" version="1.0"><defs><g/><clipPath id="id1"><path d="M 52 145 L 92 145 L 92 169 L 52 169 Z M 52 145 " clip-rule="nonzero"/></clipPath><clipPath id="id2"><path d="M 36.273438 140.113281 L 101.761719 102.328125 L 122.691406 138.605469 L 57.203125 176.390625 Z M 36.273438 140.113281 " clip-rule="nonzero"/></clipPath><clipPath id="id3"><path d="M 36.273438 140.113281 L 101.761719 102.328125 L 128.128906 148.03125 L 62.640625 185.8125 Z M 36.273438 140.113281 " clip-rule="nonzero"/></clipPath><clipPath id="id4"><path d="M 61 112 L 108 112 L 108 140 L 61 140 Z M 61 112 " clip-rule="nonzero"/></clipPath><clipPath id="id5"><path d="M 36.273438 140.113281 L 101.761719 102.328125 L 122.691406 138.605469 L 57.203125 176.390625 Z M 36.273438 140.113281 " clip-rule="nonzero"/></clipPath><clipPath id="id6"><path d="M 36.273438 140.113281 L 101.761719 102.328125 L 128.128906 148.03125 L 62.640625 185.8125 Z M 36.273438 140.113281 " clip-rule="nonzero"/></clipPath></defs><g clip-path="url(#id1)"><g clip-path="url(#id2)"><g clip-path="url(#id3)"><path fill="#05c1ff" d="M 73.179688 158.777344 C 72.503906 158.488281 59.238281 153.042969 52.828125 168.691406 C 52.828125 168.691406 58.882812 162.386719 64.148438 161.582031 C 67.011719 161.140625 75.933594 164.59375 76.683594 164.886719 C 76.691406 164.890625 76.707031 164.894531 76.710938 164.898438 C 76.710938 164.890625 76.714844 164.875 76.714844 164.867188 C 76.839844 164.070312 78.316406 154.617188 80.128906 152.359375 C 83.460938 148.207031 91.949219 146.121094 91.949219 146.121094 C 75.195312 143.835938 73.269531 158.046875 73.179688 158.777344 " fill-opacity="1" fill-rule="nonzero"/></g></g></g><g clip-path="url(#id4)"><g clip-path="url(#id5)"><g clip-path="url(#id6)"><path fill="#05c1ff" d="M 85.78125 127.691406 C 84.992188 127.351562 69.449219 120.972656 61.945312 139.300781 C 61.945312 139.300781 69.035156 131.917969 75.203125 130.972656 C 78.554688 130.457031 89.003906 134.5 89.882812 134.84375 C 89.894531 134.847656 89.910156 134.855469 89.917969 134.855469 C 89.917969 134.847656 89.921875 134.832031 89.921875 134.820312 C 90.066406 133.886719 91.796875 122.816406 93.917969 120.171875 C 97.824219 115.308594 107.765625 112.863281 107.765625 112.863281 C 88.140625 110.1875 85.886719 126.835938 85.78125 127.691406 " fill-opacity="1" fill-rule="nonzero"/></g></g></g><g fill="#05c1ff" fill-opacity="1"><g transform="translate(97.814446, 226.319519)"><g><path d="M 16.09375 -88.03125 L 16.09375 -61.875 C 16.09375 -56.425781 15.882812 -52.359375 15.46875 -49.671875 C 24.4375 -57.972656 32.738281 -62.125 40.375 -62.125 C 48.164062 -62.125 53.757812 -59.691406 57.15625 -54.828125 C 60.550781 -49.972656 62.25 -41.800781 62.25 -30.3125 C 62.25 -18.988281 60.34375 -10.851562 56.53125 -5.90625 C 52.71875 -0.957031 46.285156 1.515625 37.234375 1.515625 C 29.015625 1.515625 20.289062 0.171875 11.0625 -2.515625 L 11.0625 -88.03125 Z M 16.09375 -45.90625 L 16.09375 -5.90625 C 23.21875 -3.8125 30.21875 -2.847656 37.09375 -3.015625 C 44.3125 -3.015625 49.445312 -5.066406 52.5 -9.171875 C 55.5625 -13.285156 57.09375 -20.332031 57.09375 -30.3125 C 57.09375 -40.289062 55.769531 -47.332031 53.125 -51.4375 C 50.488281 -55.539062 45.898438 -57.59375 39.359375 -57.59375 C 35.835938 -57.59375 32.359375 -56.671875 28.921875 -54.828125 C 25.484375 -52.984375 21.207031 -50.007812 16.09375 -45.90625 Z M 16.09375 -45.90625 "/></g></g></g><g fill="#05c1ff" fill-opacity="1"><g transform="translate(168.363327, 226.319519)"><g><path d="M 16.46875 -88.03125 L 16.46875 -13.328125 C 16.382812 -10.222656 17.179688 -7.851562 18.859375 -6.21875 C 20.535156 -4.582031 22.925781 -3.765625 26.03125 -3.765625 L 32.953125 -3.765625 L 33.578125 -0.125 C 31.566406 0.539062 28.632812 0.875 24.78125 0.875 C 20.664062 0.875 17.410156 -0.296875 15.015625 -2.640625 C 12.628906 -4.984375 11.4375 -8.296875 11.4375 -12.578125 L 11.4375 -88.03125 Z M 16.46875 -88.03125 "/></g></g></g><g fill="#05c1ff" fill-opacity="1"><g transform="translate(203.197624, 226.319519)"><g><path d="M 14.390625 -54.953125 C 18.460938 -59.734375 25.445312 -62.125 35.34375 -62.125 C 45.238281 -62.125 52.21875 -59.734375 56.28125 -54.953125 C 60.34375 -50.179688 62.375 -41.96875 62.375 -30.3125 C 62.375 -18.65625 60.363281 -10.4375 56.34375 -5.65625 C 52.320312 -0.875 45.320312 1.515625 35.34375 1.515625 C 25.363281 1.515625 18.359375 -0.875 14.328125 -5.65625 C 10.304688 -10.4375 8.296875 -18.65625 8.296875 -30.3125 C 8.296875 -41.96875 10.328125 -50.179688 14.390625 -54.953125 Z M 52.375 -51.6875 C 49.15625 -55.625 43.476562 -57.59375 35.34375 -57.59375 C 27.207031 -57.59375 21.546875 -55.625 18.359375 -51.6875 C 15.171875 -47.75 13.578125 -40.625 13.578125 -30.3125 C 13.578125 -20 15.171875 -12.847656 18.359375 -8.859375 C 21.546875 -4.878906 27.207031 -2.890625 35.34375 -2.890625 C 43.476562 -2.890625 49.15625 -4.878906 52.375 -8.859375 C 55.601562 -12.847656 57.21875 -20 57.21875 -30.3125 C 57.21875 -40.625 55.601562 -47.75 52.375 -51.6875 Z M 52.375 -51.6875 "/></g></g></g><g fill="#05c1ff" fill-opacity="1"><g transform="translate(273.872257, 226.319519)"><g><path d="M 54.453125 -4.40625 L 55.21875 -0.875 C 49.09375 0.71875 42.757812 1.515625 36.21875 1.515625 C 25.988281 1.515625 18.753906 -0.875 14.515625 -5.65625 C 10.285156 -10.4375 8.171875 -18.65625 8.171875 -30.3125 C 8.171875 -41.96875 10.285156 -50.179688 14.515625 -54.953125 C 18.753906 -59.734375 25.945312 -62.125 36.09375 -62.125 C 43.382812 -62.125 49.296875 -61.328125 53.828125 -59.734375 L 52.953125 -56.34375 C 48.503906 -57.175781 43.175781 -57.59375 36.96875 -57.59375 C 28.25 -57.59375 22.148438 -55.644531 18.671875 -51.75 C 15.191406 -47.851562 13.453125 -40.707031 13.453125 -30.3125 C 13.453125 -19.914062 15.191406 -12.765625 18.671875 -8.859375 C 22.148438 -4.960938 28.25 -3.015625 36.96875 -3.015625 C 44.019531 -3.015625 49.847656 -3.476562 54.453125 -4.40625 Z M 54.453125 -4.40625 "/></g></g></g></svg>