<svg xmlns="http://www.w3.org/2000/svg" version="1.1" xmlns:xlink="http://www.w3.org/1999/xlink" xmlns:svgjs="http://svgjs.com/svgjs" width="512" height="512" x="0" y="0" viewBox="0 0 24 24" style="enable-background:new 0 0 512 512" xml:space="preserve" class=""><g><path d="M19 15.5h-8A2.503 2.503 0 0 1 8.5 13V5A2.503 2.503 0 0 1 11 2.5h8A2.503 2.503 0 0 1 21.5 5v8a2.503 2.503 0 0 1-2.5 2.5zm-8-12A1.502 1.502 0 0 0 9.5 5v8a1.502 1.502 0 0 0 1.5 1.5h8a1.502 1.502 0 0 0 1.5-1.5V5A1.502 1.502 0 0 0 19 3.5zM14.5 17v2a1.502 1.502 0 0 1-1.5 1.5H5A1.502 1.502 0 0 1 3.5 19v-8A1.502 1.502 0 0 1 5 9.5h2v-1H5A2.503 2.503 0 0 0 2.5 11v8A2.503 2.503 0 0 0 5 21.5h8a2.503 2.503 0 0 0 2.5-2.5v-2z" fill="#ffffff" data-original="#000000" class=""></path></g></svg>